<mxfile host="app.diagrams.net" modified="2022-08-12T19:54:03.933Z" agent="5.0 (Windows NT 10.0; Win64; x64) AppleWebKit/537.36 (KHTML, like Gecko) Chrome/104.0.0.0 Safari/537.36" etag="vm5jkMh5QLMrTgLaE0jN" version="20.2.3" type="github">
  <diagram id="C5RBs43oDa-KdzZeNtuy" name="Page-1">
    <mxGraphModel dx="1315" dy="1760" grid="1" gridSize="10" guides="1" tooltips="1" connect="1" arrows="1" fold="1" page="1" pageScale="1" pageWidth="827" pageHeight="1169" math="0" shadow="0">
      <root>
        <mxCell id="WIyWlLk6GJQsqaUBKTNV-0" />
        <mxCell id="WIyWlLk6GJQsqaUBKTNV-1" parent="WIyWlLk6GJQsqaUBKTNV-0" />
        <mxCell id="3G0UiM-cr103BJC9GtXK-0" value="S2" style="ellipse;whiteSpace=wrap;html=1;aspect=fixed;" vertex="1" parent="WIyWlLk6GJQsqaUBKTNV-1">
          <mxGeometry x="87.5" y="190" width="70" height="70" as="geometry" />
        </mxCell>
        <mxCell id="3G0UiM-cr103BJC9GtXK-1" value="S3&lt;br&gt;&lt;br&gt;if (Array == null) {(x0, y0) = (x, y)}&lt;br&gt;else{if (xPrev, yPrev) == (x, y){//add polygon to ArrayList and start new}&lt;br&gt;else{&lt;br&gt;(xPrev, yPrev) = (x, y);}" style="ellipse;whiteSpace=wrap;html=1;aspect=fixed;" vertex="1" parent="WIyWlLk6GJQsqaUBKTNV-1">
          <mxGeometry x="190" y="111.25" width="192.5" height="192.5" as="geometry" />
        </mxCell>
        <mxCell id="3G0UiM-cr103BJC9GtXK-2" value="S4&lt;br&gt;for (i=0; i&amp;lt;n-1;i++)&lt;br&gt;{drawLines(x0, y0, x, y)}" style="ellipse;whiteSpace=wrap;html=1;aspect=fixed;" vertex="1" parent="WIyWlLk6GJQsqaUBKTNV-1">
          <mxGeometry x="450" y="142.5" width="100" height="100" as="geometry" />
        </mxCell>
        <mxCell id="3G0UiM-cr103BJC9GtXK-3" value="S5&lt;br&gt;&lt;br&gt;Array.add(x, y)" style="ellipse;whiteSpace=wrap;html=1;aspect=fixed;" vertex="1" parent="WIyWlLk6GJQsqaUBKTNV-1">
          <mxGeometry x="620" y="117.5" width="150" height="150" as="geometry" />
        </mxCell>
        <mxCell id="3G0UiM-cr103BJC9GtXK-6" value="mouseMoved&lt;br&gt;(x, y)" style="text;html=1;strokeColor=none;fillColor=none;align=center;verticalAlign=middle;whiteSpace=wrap;rounded=0;" vertex="1" parent="WIyWlLk6GJQsqaUBKTNV-1">
          <mxGeometry x="20" y="303.75" width="110" height="30" as="geometry" />
        </mxCell>
        <mxCell id="3G0UiM-cr103BJC9GtXK-10" value="S1&lt;br&gt;&lt;br&gt;Select &quot;Open Polygon&quot; or &quot;Closed Polygon&quot; mode" style="ellipse;whiteSpace=wrap;html=1;aspect=fixed;" vertex="1" parent="WIyWlLk6GJQsqaUBKTNV-1">
          <mxGeometry x="50" y="35" width="107.5" height="107.5" as="geometry" />
        </mxCell>
        <mxCell id="3G0UiM-cr103BJC9GtXK-11" value="mouseDragged(x, y)" style="text;html=1;strokeColor=none;fillColor=none;align=center;verticalAlign=middle;whiteSpace=wrap;rounded=0;" vertex="1" parent="WIyWlLk6GJQsqaUBKTNV-1">
          <mxGeometry x="370" y="250" width="131" height="30" as="geometry" />
        </mxCell>
        <mxCell id="3G0UiM-cr103BJC9GtXK-12" value="mouseClicked(x, y)" style="text;html=1;strokeColor=none;fillColor=none;align=center;verticalAlign=middle;whiteSpace=wrap;rounded=0;" vertex="1" parent="WIyWlLk6GJQsqaUBKTNV-1">
          <mxGeometry x="120" y="280" width="110" height="30" as="geometry" />
        </mxCell>
        <mxCell id="3G0UiM-cr103BJC9GtXK-13" value="mouseUpclicked(x, y)" style="text;html=1;strokeColor=none;fillColor=none;align=center;verticalAlign=middle;whiteSpace=wrap;rounded=0;" vertex="1" parent="WIyWlLk6GJQsqaUBKTNV-1">
          <mxGeometry x="520" y="250" width="131" height="30" as="geometry" />
        </mxCell>
        <mxCell id="3G0UiM-cr103BJC9GtXK-14" value="" style="endArrow=classic;html=1;rounded=0;exitX=0;exitY=1;exitDx=0;exitDy=0;entryX=0;entryY=0.5;entryDx=0;entryDy=0;" edge="1" parent="WIyWlLk6GJQsqaUBKTNV-1" source="3G0UiM-cr103BJC9GtXK-10" target="3G0UiM-cr103BJC9GtXK-0">
          <mxGeometry width="50" height="50" relative="1" as="geometry">
            <mxPoint x="10" y="230" as="sourcePoint" />
            <mxPoint x="60" y="180" as="targetPoint" />
            <Array as="points">
              <mxPoint x="40" y="180" />
            </Array>
          </mxGeometry>
        </mxCell>
        <mxCell id="3G0UiM-cr103BJC9GtXK-15" value="" style="endArrow=classic;html=1;rounded=0;exitX=1;exitY=1;exitDx=0;exitDy=0;entryX=0.078;entryY=0.759;entryDx=0;entryDy=0;entryPerimeter=0;" edge="1" parent="WIyWlLk6GJQsqaUBKTNV-1" source="3G0UiM-cr103BJC9GtXK-0" target="3G0UiM-cr103BJC9GtXK-1">
          <mxGeometry width="50" height="50" relative="1" as="geometry">
            <mxPoint x="150" y="310" as="sourcePoint" />
            <mxPoint x="200" y="260" as="targetPoint" />
            <Array as="points">
              <mxPoint x="170" y="270" />
            </Array>
          </mxGeometry>
        </mxCell>
        <mxCell id="3G0UiM-cr103BJC9GtXK-16" value="" style="endArrow=classic;html=1;rounded=0;exitX=0.949;exitY=0.724;exitDx=0;exitDy=0;exitPerimeter=0;entryX=0;entryY=1;entryDx=0;entryDy=0;" edge="1" parent="WIyWlLk6GJQsqaUBKTNV-1" source="3G0UiM-cr103BJC9GtXK-1" target="3G0UiM-cr103BJC9GtXK-2">
          <mxGeometry width="50" height="50" relative="1" as="geometry">
            <mxPoint x="400" y="280" as="sourcePoint" />
            <mxPoint x="450" y="230" as="targetPoint" />
            <Array as="points">
              <mxPoint x="420" y="250" />
            </Array>
          </mxGeometry>
        </mxCell>
        <mxCell id="3G0UiM-cr103BJC9GtXK-17" value="" style="endArrow=classic;html=1;rounded=0;exitX=1;exitY=1;exitDx=0;exitDy=0;" edge="1" parent="WIyWlLk6GJQsqaUBKTNV-1" source="3G0UiM-cr103BJC9GtXK-2">
          <mxGeometry width="50" height="50" relative="1" as="geometry">
            <mxPoint x="570" y="260" as="sourcePoint" />
            <mxPoint x="620" y="210" as="targetPoint" />
            <Array as="points">
              <mxPoint x="590" y="250" />
            </Array>
          </mxGeometry>
        </mxCell>
        <mxCell id="3G0UiM-cr103BJC9GtXK-18" value="" style="endArrow=classic;html=1;rounded=0;entryX=0.5;entryY=0;entryDx=0;entryDy=0;" edge="1" parent="WIyWlLk6GJQsqaUBKTNV-1" source="3G0UiM-cr103BJC9GtXK-3" target="3G0UiM-cr103BJC9GtXK-0">
          <mxGeometry width="50" height="50" relative="1" as="geometry">
            <mxPoint x="430" y="100" as="sourcePoint" />
            <mxPoint x="480" y="50" as="targetPoint" />
            <Array as="points">
              <mxPoint x="560" y="80" />
              <mxPoint x="410" y="80" />
              <mxPoint x="230" y="90" />
            </Array>
          </mxGeometry>
        </mxCell>
        <mxCell id="3G0UiM-cr103BJC9GtXK-19" value="" style="endArrow=classic;html=1;rounded=0;exitX=1;exitY=0;exitDx=0;exitDy=0;entryX=0;entryY=0;entryDx=0;entryDy=0;" edge="1" parent="WIyWlLk6GJQsqaUBKTNV-1" source="3G0UiM-cr103BJC9GtXK-2" target="3G0UiM-cr103BJC9GtXK-2">
          <mxGeometry width="50" height="50" relative="1" as="geometry">
            <mxPoint x="400" y="220" as="sourcePoint" />
            <mxPoint x="450" y="170" as="targetPoint" />
            <Array as="points">
              <mxPoint x="530" y="130" />
              <mxPoint x="500" y="110" />
              <mxPoint x="470" y="130" />
            </Array>
          </mxGeometry>
        </mxCell>
        <mxCell id="3G0UiM-cr103BJC9GtXK-21" value="" style="endArrow=classic;html=1;rounded=0;exitX=0.5;exitY=1;exitDx=0;exitDy=0;entryX=0;entryY=1;entryDx=0;entryDy=0;" edge="1" parent="WIyWlLk6GJQsqaUBKTNV-1" source="3G0UiM-cr103BJC9GtXK-0" target="3G0UiM-cr103BJC9GtXK-0">
          <mxGeometry width="50" height="50" relative="1" as="geometry">
            <mxPoint x="50" y="320" as="sourcePoint" />
            <mxPoint x="100" y="270" as="targetPoint" />
            <Array as="points">
              <mxPoint x="120" y="290" />
              <mxPoint x="90" y="300" />
              <mxPoint x="70" y="280" />
            </Array>
          </mxGeometry>
        </mxCell>
        <mxCell id="3G0UiM-cr103BJC9GtXK-22" value="mouseMoved&lt;br&gt;(x, y)" style="text;html=1;strokeColor=none;fillColor=none;align=center;verticalAlign=middle;whiteSpace=wrap;rounded=0;" vertex="1" parent="WIyWlLk6GJQsqaUBKTNV-1">
          <mxGeometry x="47.5" y="160" width="110" height="30" as="geometry" />
        </mxCell>
        <mxCell id="3G0UiM-cr103BJC9GtXK-23" value="mouseDragged(x, y)" style="text;html=1;strokeColor=none;fillColor=none;align=center;verticalAlign=middle;whiteSpace=wrap;rounded=0;" vertex="1" parent="WIyWlLk6GJQsqaUBKTNV-1">
          <mxGeometry x="430" y="81.25" width="131" height="30" as="geometry" />
        </mxCell>
        <mxCell id="3G0UiM-cr103BJC9GtXK-25" value="mouseMoved&lt;br&gt;(x, y)" style="text;html=1;strokeColor=none;fillColor=none;align=center;verticalAlign=middle;whiteSpace=wrap;rounded=0;" vertex="1" parent="WIyWlLk6GJQsqaUBKTNV-1">
          <mxGeometry x="300" y="35" width="110" height="30" as="geometry" />
        </mxCell>
      </root>
    </mxGraphModel>
  </diagram>
</mxfile>
